<svg class="icon"
     viewBox="0 0 1969 1024"
     version="1.1"
     xmlns="http://www.w3.org/2000/svg"
     width="128" height="128">
    <path d="M1890.304 105.984c-28.16-24.064-65.536-37.376-103.936-36.864H182.784c-38.4-0.512-75.776 12.8-103.936 36.864C53.76 128 39.424 158.72 39.424 190.976v645.12c0 32.256 14.336 62.464 39.424 84.48 28.16 23.04 64 35.84 101.376 35.328h1606.144c38.4 1.024 75.264-11.776 103.936-35.328 26.112-22.016 41.472-53.248 41.984-86.016V190.976c-0.512-32.768-15.872-63.488-41.984-84.992z"
          fill="#FF6600"/>
    <path d="M1017.344 772.608c-20.48 0-38.4-19.456-53.76-58.368l-178.688-460.8h137.216l120.832 315.904 142.336-315.904h137.216L1085.44 714.752c-24.576 38.4-47.616 57.856-68.096 57.856zM1841.152 444.928c-7.68 54.272-36.352 103.936-79.872 137.216-42.496 33.792-95.232 51.712-148.992 50.688H1397.76l-17.92 128.512h-128l36.864-260.608h353.792c16.896 0.512 33.792-5.12 46.592-16.384 13.312-11.264 22.016-26.624 24.064-44.032 3.584-15.36-1.024-31.744-11.776-43.52-11.264-10.752-26.112-16.384-41.984-15.872H1305.6l104.448-128.512h257.536c50.688-3.072 100.864 15.36 137.216 50.688 34.304 39.424 47.616 91.648 36.352 141.824zM620.032 326.144l-145.92 446.464H381.44L243.712 326.144l-2.56 2.56v443.392H137.216V252.928h182.272l109.568 378.88h2.56l117.76-378.88h174.08v519.168H619.52V326.144z"
          fill="#FFFFFF"/>
</svg>
